REM DIRINDEX 1\2\5,1\2\6,1\2\7,1\2\8,1\3\9,1\3\10,1\3\11,1\4\12,1\4\13,1\4\14,1\4\15,1\4\16
REM DIRNAME cjc034,folder01,folder02,folder03,folder04,folder05,folder06,folder07,folder08,folder09,folder10,folder11,folder12,folder13,folder14,folder15
TITLE ""
FILE "1200_sec02_0492_0499.mp3" MP3
  TRACK 01 AUDIO
    TITLE "0:"
    INDEX 01 00:00:00
  TRACK 02 AUDIO
    TITLE "12:cjc034_05611"
    INDEX 01 00:00:19
  TRACK 03 AUDIO
    TITLE "0:"
    INDEX 01 00:01:30
  TRACK 04 AUDIO
    TITLE "13:cjc034_05612"
    INDEX 01 00:01:64
  TRACK 05 AUDIO
    TITLE "0:"
    INDEX 01 00:05:28
  TRACK 06 AUDIO
    TITLE "14:cjc034_05613"
    INDEX 01 00:05:61
  TRACK 07 AUDIO
    TITLE "0:"
    INDEX 01 00:06:73
  TRACK 08 AUDIO
    TITLE "15:cjc034_05614"
    INDEX 01 00:07:31
  TRACK 09 AUDIO
    TITLE "0:"
    INDEX 01 00:11:31
  TRACK 10 AUDIO
    TITLE "12:cjc034_05615"
    INDEX 01 00:12:65
  TRACK 11 AUDIO
    TITLE "0:"
    INDEX 01 00:13:57
  TRACK 12 AUDIO
    TITLE "13:cjc034_05616"
    INDEX 01 00:14:17
  TRACK 13 AUDIO
    TITLE "0:"
    INDEX 01 00:15:03
  TRACK 14 AUDIO
    TITLE "14:cjc034_05617"
    INDEX 01 00:15:36
  TRACK 15 AUDIO
    TITLE "0:"
    INDEX 01 00:16:28
  TRACK 16 AUDIO
    TITLE "15:cjc034_05618"
    INDEX 01 00:16:63
  TRACK 17 AUDIO
    TITLE "0:"
    INDEX 01 00:20:41
  TRACK 18 AUDIO
    TITLE "12:cjc034_05619"
    INDEX 01 00:21:74
  TRACK 19 AUDIO
    TITLE "0:"
    INDEX 01 00:23:18
  TRACK 20 AUDIO
    TITLE "13:cjc034_05620"
    INDEX 01 00:23:51
  TRACK 21 AUDIO
    TITLE "0:"
    INDEX 01 00:28:10
  TRACK 22 AUDIO
    TITLE "14:cjc034_05621"
    INDEX 01 00:28:41
  TRACK 23 AUDIO
    TITLE "0:"
    INDEX 01 00:29:60
  TRACK 24 AUDIO
    TITLE "15:cjc034_05622"
    INDEX 01 00:30:20
  TRACK 25 AUDIO
    TITLE "0:"
    INDEX 01 00:35:17
  TRACK 26 AUDIO
    TITLE "12:cjc034_05623"
    INDEX 01 00:36:50
  TRACK 27 AUDIO
    TITLE "0:"
    INDEX 01 00:37:48
  TRACK 28 AUDIO
    TITLE "13:cjc034_05624"
    INDEX 01 00:38:08
  TRACK 29 AUDIO
    TITLE "0:"
    INDEX 01 00:40:40
  TRACK 30 AUDIO
    TITLE "14:cjc034_05625"
    INDEX 01 00:40:72
  TRACK 31 AUDIO
    TITLE "0:"
    INDEX 01 00:41:69
  TRACK 32 AUDIO
    TITLE "15:cjc034_05626"
    INDEX 01 00:42:31
  TRACK 33 AUDIO
    TITLE "0:"
    INDEX 01 00:46:37
  TRACK 34 AUDIO
    TITLE "12:cjc034_05627"
    INDEX 01 00:47:68
  TRACK 35 AUDIO
    TITLE "0:"
    INDEX 01 00:49:06
  TRACK 36 AUDIO
    TITLE "13:cjc034_05628"
    INDEX 01 00:49:43
  TRACK 37 AUDIO
    TITLE "0:"
    INDEX 01 00:50:60
  TRACK 38 AUDIO
    TITLE "14:cjc034_05629"
    INDEX 01 00:51:18
  TRACK 39 AUDIO
    TITLE "0:"
    INDEX 01 00:52:30
  TRACK 40 AUDIO
    TITLE "15:cjc034_05630"
    INDEX 01 00:52:67
  TRACK 41 AUDIO
    TITLE "0:"
    INDEX 01 00:57:37
  TRACK 42 AUDIO
    TITLE "12:cjc034_05631"
    INDEX 01 00:58:71
  TRACK 43 AUDIO
    TITLE "0:"
    INDEX 01 01:00:10
  TRACK 44 AUDIO
    TITLE "13:cjc034_05632"
    INDEX 01 01:00:39
  TRACK 45 AUDIO
    TITLE "0:"
    INDEX 01 01:01:52
  TRACK 46 AUDIO
    TITLE "14:cjc034_05633"
    INDEX 01 01:02:10
  TRACK 47 AUDIO
    TITLE "0:"
    INDEX 01 01:03:22
  TRACK 48 AUDIO
    TITLE "15:cjc034_05634"
    INDEX 01 01:03:53
  TRACK 49 AUDIO
    TITLE "0:"
    INDEX 01 01:06:73
  TRACK 50 AUDIO
    TITLE "12:cjc034_05635"
    INDEX 01 01:08:33
  TRACK 51 AUDIO
    TITLE "0:"
    INDEX 01 01:09:48
  TRACK 52 AUDIO
    TITLE "13:cjc034_05636"
    INDEX 01 01:10:10
  TRACK 53 AUDIO
    TITLE "0:"
    INDEX 01 01:11:31
  TRACK 54 AUDIO
    TITLE "14:cjc034_05637"
    INDEX 01 01:11:64
  TRACK 55 AUDIO
    TITLE "0:"
    INDEX 01 01:13:04
  TRACK 56 AUDIO
    TITLE "15:cjc034_05638"
    INDEX 01 01:13:40
  TRACK 57 AUDIO
    TITLE "0:"
    INDEX 01 01:16:61
  TRACK 58 AUDIO
    TITLE "12:cjc034_05639"
    INDEX 01 01:18:19
  TRACK 59 AUDIO
    TITLE "0:"
    INDEX 01 01:19:30
  TRACK 60 AUDIO
    TITLE "13:cjc034_05640"
    INDEX 01 01:19:64
  TRACK 61 AUDIO
    TITLE "0:"
    INDEX 01 01:24:00
  TRACK 62 AUDIO
    TITLE "14:cjc034_05641"
    INDEX 01 01:24:34
  TRACK 63 AUDIO
    TITLE "0:"
    INDEX 01 01:25:43
  TRACK 64 AUDIO
    TITLE "15:cjc034_05642"
    INDEX 01 01:26:03
  TRACK 65 AUDIO
    TITLE "0:"
    INDEX 01 01:29:58
